<?xml version="1.0" standalone="no"?>
<!DOCTYPE svg PUBLIC "-//W3C//DTD SVG 20010904//EN"
 "http://www.w3.org/TR/2001/REC-SVG-20010904/DTD/svg10.dtd">
<svg version="1.0" xmlns="http://www.w3.org/2000/svg"
 width="527.000000pt" height="527.000000pt" viewBox="0 0 527.000000 527.000000"
 preserveAspectRatio="xMidYMid meet">
<metadata>
Created by potrace 1.11, written by Peter Selinger 2001-2013
</metadata>
<g transform="translate(0.000000,527.000000) scale(0.100000,-0.100000)"
fill="#000000" stroke="none">
<path d="M30 4688 l-30 -62 0 -1483 0 -1484 201 -97 c110 -54 196 -101 192
-106 -4 -4 -3 -7 2 -5 20 5 65 -13 58 -23 -4 -7 28 -9 98 -5 152 8 107 1 -206
-33 -154 -16 -294 -32 -312 -35 l-31 -6 1 -403 2 -404 50 -6 c79 -9 140 -7
153 6 9 9 15 9 24 0 9 -9 584 -12 2525 -12 l2513 0 0 735 0 735 -50 0 c-33 0
-52 5 -56 13 -3 8 9 39 26 71 36 70 38 95 7 124 -30 28 -75 28 -203 1 -505
-105 -689 -142 -746 -149 -38 -5 -72 -11 -77 -14 -10 -6 -91 -23 -396 -81
-104 -20 -200 -39 -213 -42 -22 -5 -22 -4 -21 83 1 49 -4 102 -10 117 -12 32
-60 220 -86 340 -10 48 -21 77 -29 77 -8 0 -39 -12 -70 -26 -43 -19 -78 -27
-139 -30 -91 -4 -87 -2 23 16 116 19 177 45 204 88 21 34 22 40 11 73 -7 20
-16 67 -20 105 -18 181 -99 443 -182 592 -33 59 -40 65 -110 98 -41 19 -80 34
-87 34 -6 0 -16 4 -22 9 -5 4 -49 20 -99 36 -49 15 -119 36 -153 48 l-64 20 5
56 c3 45 51 233 60 235 1 1 16 8 32 16 81 40 120 264 41 234 -20 -8 -20 -5 -1
39 19 47 20 207 1 270 -20 68 -77 139 -165 205 -94 71 -143 86 -248 80 -67 -5
-88 -11 -147 -44 -125 -70 -207 -176 -235 -304 -11 -49 -8 -174 5 -205 8 -19
8 -19 15 5 4 14 5 53 2 87 -5 50 -2 68 13 90 10 15 19 30 20 33 0 3 8 22 17
42 10 21 17 41 17 46 0 16 41 62 55 62 7 0 16 -7 19 -16 3 -8 2 -12 -4 -9 -6
3 -10 -3 -10 -14 0 -15 6 -21 21 -21 13 0 18 -4 14 -12 -4 -7 0 -5 8 5 8 10
18 14 21 9 3 -5 19 -12 36 -16 18 -3 29 -10 25 -16 -3 -5 -1 -10 6 -10 17 0
96 -85 91 -99 -2 -6 -7 -9 -11 -7 -7 5 -10 -13 -14 -80 l-2 -41 -25 18 c-14
10 -60 23 -102 29 -68 10 -80 9 -103 -6 -19 -12 -24 -22 -19 -37 5 -15 3 -17
-7 -11 -11 6 -12 5 -2 -7 9 -11 10 -18 1 -27 -18 -18 -1 -42 30 -42 15 0 37
-8 48 -18 35 -33 79 -49 104 -40 15 5 26 5 30 -2 10 -16 44 27 45 58 0 18 6
28 18 30 17 3 18 -1 11 -45 -8 -59 -10 -63 -34 -63 -10 0 -22 -5 -26 -11 -4
-7 1 -10 12 -7 13 2 24 -7 36 -32 10 -19 18 -40 18 -47 0 -17 -44 -27 -67 -15
-38 20 -71 -21 -38 -48 12 -10 16 -9 21 4 3 9 16 16 28 15 20 0 20 -1 -3 -10
-23 -9 -24 -10 -5 -25 16 -13 16 -15 2 -10 -10 3 -21 -2 -26 -10 -5 -9 -13
-16 -18 -16 -35 -2 -102 -39 -107 -60 -7 -24 -28 -23 -57 2 -30 26 -35 19 -15
-19 9 -19 11 -31 5 -31 -14 0 -3 -36 21 -72 21 -29 24 -43 9 -33 -11 7 -7 -35
4 -53 3 -5 -1 -9 -9 -9 -8 0 -12 4 -9 9 3 4 0 8 -5 8 -12 0 -14 -10 -11 -52 1
-16 -3 -28 -8 -28 -13 0 -22 36 -22 95 l0 50 -27 -28 c-25 -25 -28 -34 -27
-100 0 -93 20 -135 121 -253 108 -126 342 -340 363 -332 21 7 111 125 124 162
37 107 50 170 56 271 l7 110 1 -96 c2 -116 -27 -271 -64 -345 -29 -58 -171
-217 -185 -208 -5 3 4 21 21 40 16 19 30 39 30 43 0 5 -30 31 -68 57 -135 97
-315 288 -381 407 -18 30 -33 75 -36 103 -3 27 -8 62 -10 77 -4 22 4 37 35 71
47 51 49 72 20 177 -21 78 -38 108 -51 88 -5 -9 -10 -9 -20 0 -8 6 -131 69
-274 140 -143 71 -524 259 -847 420 l-587 291 -131 0 -130 0 -30 -62z m2444
-436 c-6 -9 -21 -19 -34 -20 -18 -3 -21 0 -16 13 3 9 9 28 12 42 l7 25 21 -21
c16 -17 18 -25 10 -39z m-224 -52 c0 -5 -9 -10 -21 -10 -11 0 -17 5 -14 10 3
6 13 10 21 10 8 0 14 -4 14 -10z m-17 -54 c4 -10 1 -13 -9 -9 -15 6 -19 23 -5
23 5 0 11 -7 14 -14z m337 -21 c0 -17 -2 -18 -25 -9 -13 5 -14 8 -3 15 19 13
28 11 28 -6z m-210 -15 c0 -5 -5 -10 -11 -10 -5 0 -7 5 -4 10 3 6 8 10 11 10
2 0 4 -4 4 -10z m50 -291 c3 -1 -13 -5 -35 -9 -22 -4 -49 -11 -60 -15 -18 -7
-18 -6 3 17 21 23 28 25 55 17 18 -5 34 -10 37 -10z m-227 -64 c4 -8 2 -17 -3
-20 -6 -4 -10 -4 -10 -1 0 2 -3 11 -6 20 -3 9 -2 16 4 16 5 0 12 -7 15 -15z
m223 -26 l19 -22 -60 7 c-32 4 -63 12 -67 19 -5 7 -8 3 -8 -13 -1 -22 -2 -23
-11 -7 -16 27 -2 37 55 37 42 0 57 -5 72 -21z m-111 -89 c4 -7 29 -8 67 -4 58
7 60 6 49 -14 -14 -27 -67 -45 -92 -31 -10 5 -19 7 -19 3 0 -4 -11 5 -25 20
-14 15 -25 29 -25 32 0 9 39 4 45 -6z m-1009 -776 c-7 -22 -23 -65 -35 -96
-30 -83 -36 -178 -16 -268 9 -41 20 -111 25 -154 5 -44 13 -82 18 -85 5 -3 14
-31 20 -61 l11 -55 -2 53 -2 54 30 -7 c85 -17 176 -25 230 -20 54 4 57 4 25
-6 -20 -7 -77 -9 -135 -7 -84 4 -91 3 -45 -5 30 -5 62 -11 70 -14 8 -4 18 -5
23 -5 4 1 7 -5 7 -13 0 -8 -5 -15 -11 -15 -7 0 -9 -9 -6 -23 8 -31 -5 -47 -39
-51 -16 -2 -28 -6 -26 -10 1 -3 5 -13 9 -21 3 -9 12 -14 20 -11 12 5 13 0 8
-25 -5 -21 -3 -34 5 -39 7 -4 13 -25 14 -46 1 -22 8 -50 15 -64 8 -13 14 -32
15 -42 1 -9 21 -39 46 -65 25 -26 52 -60 59 -75 8 -16 18 -28 23 -28 4 0 8 -6
8 -14 0 -8 7 -16 15 -20 8 -3 15 -10 15 -16 0 -15 -40 -12 -46 4 -3 8 -16 17
-29 20 -12 3 -25 15 -28 26 -3 11 -13 23 -24 27 -10 3 -20 10 -23 13 -11 15
-93 51 -105 46 -7 -2 -16 -29 -20 -58 -7 -47 -9 -50 -18 -30 -5 12 -13 22 -16
22 -3 0 -6 -39 -6 -87 l0 -88 -29 -3 c-15 -2 -26 1 -23 5 3 5 2 91 -3 191 -7
134 -21 250 -54 444 -74 435 -79 481 -66 557 13 76 39 140 77 190 31 41 40 30
19 -25z m1852 -99 c1 -1 -2 -15 -7 -31 -6 -16 -20 -66 -32 -111 l-21 -83 -140
0 -139 0 7 38 c3 20 12 62 19 92 7 30 16 67 19 81 l5 25 143 -4 c79 -2 144 -5
146 -7z m-1861 -139 c-2 -143 -14 -152 -18 -14 -2 74 6 148 16 148 2 0 3 -60
2 -134z m915 -114 c-46 -44 -50 -84 -13 -143 17 -28 31 -56 31 -63 0 -6 5 -17
12 -24 7 -7 8 -12 3 -12 -6 0 -3 -5 5 -11 11 -7 6 -8 -20 -3 -90 17 -134 68
-127 147 6 68 52 115 136 136 2 1 -10 -12 -27 -27z m918 -127 c19 -55 46 -131
61 -168 48 -115 54 -168 32 -272 -17 -86 -19 -90 -47 -93 -32 -4 -42 7 -94
103 -29 54 -34 73 -44 189 -8 98 -8 137 1 161 6 18 11 46 11 61 -1 16 2 57 6
92 7 61 8 63 24 45 10 -10 32 -63 50 -118z m-750 21 c0 -3 -4 -8 -10 -11 -5
-3 -10 -1 -10 4 0 6 5 11 10 11 6 0 10 -2 10 -4z m-39 -85 c-13 -17 -25 -31
-29 -31 -3 0 -1 5 6 12 7 7 12 22 12 33 0 27 11 38 23 26 6 -6 1 -21 -12 -40z
m-54 -37 c-3 -3 -12 -4 -19 -1 -8 3 -5 6 6 6 11 1 17 -2 13 -5z m2883 -360 c0
-22 -3 -23 -20 -14 -30 16 -25 55 6 43 8 -3 14 -16 14 -29z m-2440 -209 c0 -8
-9 -15 -20 -15 -20 0 -26 11 -13 23 12 13 33 7 33 -8z m-1280 -167 c0 -27 -4
-38 -15 -38 -12 0 -15 13 -15 58 1 52 2 55 15 38 8 -11 15 -37 15 -58z m-157
-55 c-7 -2 -21 -2 -30 0 -10 3 -4 5 12 5 17 0 24 -2 18 -5z m-95 -10 c-10 -2
-26 -2 -35 0 -10 3 -2 5 17 5 19 0 27 -2 18 -5z m-85 -10 c-13 -2 -33 -2 -45
0 -13 2 -3 4 22 4 25 0 35 -2 23 -4z m-85 -10 c-10 -2 -28 -2 -40 0 -13 2 -5
4 17 4 22 1 32 -1 23 -4z m-95 -10 c-13 -2 -33 -2 -45 0 -13 2 -3 4 22 4 25 0
35 -2 23 -4z m-123 -13 c-30 -5 -73 -8 -95 -7 -38 0 -38 0 10 7 28 4 70 7 95
7 44 0 44 0 -10 -7z m1182 -167 c28 -26 22 -39 -27 -50 -40 -9 -46 -8 -66 13
-26 28 -25 29 21 42 49 14 51 14 72 -5z m268 -235 c0 -6 -6 -5 -15 2 -8 7 -15
14 -15 16 0 2 7 1 15 -2 8 -4 15 -11 15 -16z m-372 -284 c23 -14 42 -29 42
-34 0 -13 -13 -13 -26 0 -5 5 -34 23 -64 40 -42 24 -48 30 -25 25 17 -3 49
-18 73 -31z m-878 -104 c0 -11 -68 -25 -78 -16 -3 4 0 11 8 16 20 13 70 13 70
0z"/>
<path d="M2920 2737 c0 -4 -4 -5 -10 -2 -5 3 -7 0 -4 -8 4 -11 25 -14 89 -13
79 1 115 10 84 20 -26 9 -159 11 -159 3z"/>
<path d="M2863 2656 c-25 -26 -31 -52 -10 -40 8 6 8 3 -2 -9 -29 -36 13 -63
54 -34 12 9 15 19 9 28 -4 7 -7 28 -5 46 3 40 -14 43 -46 9z"/>
<path d="M2950 2646 c0 -8 5 -18 10 -21 16 -10 11 -28 -6 -21 -8 3 -13 2 -10
-3 3 -4 34 -8 68 -9 35 0 57 2 51 4 -18 8 -16 27 1 21 13 -5 26 12 26 34 0 5
-31 9 -70 9 -54 0 -70 -3 -70 -14z"/>
<path d="M2030 4160 c0 -6 7 -10 15 -10 8 0 15 2 15 4 0 2 -7 6 -15 10 -8 3
-15 1 -15 -4z"/>
<path d="M2006 4143 c-12 -12 -6 -94 9 -130 8 -20 18 -34 21 -30 3 3 0 15 -6
28 -12 21 -9 76 5 110 6 16 -17 34 -29 22z"/>
<path d="M2052 4078 c-18 -18 -14 -63 8 -83 19 -17 19 -17 13 36 -7 64 -6 62
-21 47z"/>
<path d="M2325 4000 c-3 -5 1 -10 10 -10 9 0 13 5 10 10 -3 6 -8 10 -10 10 -2
0 -7 -4 -10 -10z"/>
</g>
</svg>
